<svg width="32" height="32" viewBox="0 0 32 32" fill="none" xmlns="http://www.w3.org/2000/svg">
<circle cx="16" cy="16" r="15.75" fill="#1D1D1D" stroke="white" stroke-width="0.5"/>
<path d="M15.97 6C10.45 6 5.97 10.48 5.97 16C5.97 21.52 10.45 26 15.97 26C21.49 26 25.97 21.52 25.97 16C25.97 10.48 21.5 6 15.97 6ZM18.97 18.23L16.07 19.9C15.71 20.11 15.31 20.21 14.92 20.21C14.52 20.21 14.13 20.11 13.77 19.9C13.05 19.48 12.62 18.74 12.62 17.9V14.55C12.62 13.72 13.05 12.97 13.77 12.55C14.49 12.13 15.35 12.13 16.08 12.55L18.98 14.22C19.7 14.64 20.13 15.38 20.13 16.22C20.13 17.06 19.7 17.81 18.97 18.23Z" fill="white"/>
</svg>
